<?xml version="1.0" ?><!DOCTYPE svg  PUBLIC '-//W3C//DTD SVG 1.1//EN'  'http://www.w3.org/Graphics/SVG/1.1/DTD/svg11.dtd'><svg enable-background="new 0 0 256 256" height="256px" id="Layer_1" version="1.1" viewBox="0 0 256 256" width="256px" xml:space="preserve" xmlns="http://www.w3.org/2000/svg" xmlns:xlink="http://www.w3.org/1999/xlink"><g><path d="M243.482,128c0,3.996-0.198,7.932-0.592,11.822c-0.107,1.048-0.229,2.111-0.38,3.16   c-0.426,3.388-1.018,6.731-1.748,10.014c-9.619,43.64-43.944,78.011-87.554,87.72c-2.522,0.563-5.06,1.034-7.627,1.429h-0.017   c-0.774,0.122-1.549,0.228-2.34,0.334c-4.983,0.67-10.058,1.003-15.225,1.003c-63.774,0-115.482-51.709-115.482-115.481   C12.518,64.226,64.226,12.519,128,12.519C191.773,12.519,243.482,64.226,243.482,128z" fill="#90CD62"/><defs><filter filterUnits="userSpaceOnUse" height="182.94" id="Adobe_OpacityMaskFilter" width="169.409" x="73.101" y="59.204"><feFlood result="back" style="flood-color:white;flood-opacity:1"/><feBlend in="SourceGraphic" in2="back" mode="normal"/></filter></defs><mask height="182.94" id="SVGID_1_" maskUnits="userSpaceOnUse" width="169.409" x="73.101" y="59.204"><g filter="url(#Adobe_OpacityMaskFilter)"><defs><filter filterUnits="userSpaceOnUse" height="182.94" id="Adobe_OpacityMaskFilter_1_" width="169.409" x="73.101" y="59.204"><feFlood result="back" style="flood-color:white;flood-opacity:1"/><feBlend in="SourceGraphic" in2="back" mode="normal"/></filter></defs><mask height="182.94" id="SVGID_1_" maskUnits="userSpaceOnUse" width="169.409" x="73.101" y="59.204"/><linearGradient gradientUnits="userSpaceOnUse" id="SVGID_2_" x1="224.7651" x2="80.3131" y1="195.4189" y2="112.0195"><stop offset="0" style="stop-color:#FFFFFF"/><stop offset="1" style="stop-color:#B2B2B2"/></linearGradient><path d="M242.51,142.982c-0.426,3.388-1.018,6.731-1.748,10.014     c-9.619,43.64-32.404,75.888-76.014,85.597c-2.522,0.562-16.6,3.157-19.167,3.552l11.523-2.123     c-0.774,0.121-1.549,0.227-2.34,0.334l-78.197-83.007l-3.466-32.837l33.354-15.849L128,110.689l12.391-39.406l8.558-12.079     L242.51,142.982z" fill="url(#SVGID_2_)" mask="url(#SVGID_1_)"/></g></mask><path d="M242.51,142.982c-0.426,3.388-1.018,6.731-1.748,10.014c-9.619,43.64-32.404,75.888-76.014,85.597   c-2.522,0.562-16.6,3.157-19.167,3.552l11.523-2.123c-0.774,0.121-1.549,0.227-2.34,0.334l-78.197-83.007l-3.466-32.837   l33.354-15.849L128,110.689l12.391-39.406l8.558-12.079L242.51,142.982z" fill="#80B557"/><g><g><path d="M71.63,125.04l1.471-0.528l11.798,32.867l-1.472,0.528c-4.337,1.559-9.109-0.691-10.667-5.027     l-6.162-17.17C65.037,131.371,67.291,126.596,71.63,125.04z" fill="#44475A"/><path d="M82.905,117.115l2.613-0.938l6.465-2.319l11.199-4.023l14.266,39.738l-11.204,4.024l-6.461,2.319     l-2.613,0.939c-4.338,1.556-9.11-0.699-10.668-5.038l-8.627-24.035C76.318,123.444,78.568,118.672,82.905,117.115z" fill="#FFEA4B"/><path d="M118.359,152.481l25.04,29.987c3.353,3.072,3.574,8.3,0.487,11.653     c-3.077,3.359-8.309,3.582-11.654,0.498l-36.483-34.159L118.359,152.481z" fill="#44475A"/><path d="M140.391,71.283l15.142,42.194l15.146,42.187c0,0-21.256-17.563-49.96-7.261l-7.131-19.871l-7.133-19.869     C135.159,98.357,140.391,71.283,140.391,71.283z" fill="#FFEA4B"/><path d="M144.927,59.502c2.624-0.94,5.51,0.423,6.447,3.042l12.044,33.548     c11.852-3.619,23.223-0.857,25.906,6.612c2.685,7.484-4.339,16.839-15.784,21.589l11.177,31.138     c0.938,2.624-0.423,5.504-3.043,6.445c-2.616,0.938-5.505-0.42-6.444-3.039l-33.344-92.886     C140.947,63.334,142.313,60.443,144.927,59.502z" fill="#44475A"/></g><g><path d="M78.999,140.947l5.895,16.426l-1.457,0.522c-4.353,1.562-9.111-0.683-10.674-5.033l-3.075-8.569     L78.999,140.947z" fill="#24262F"/><path d="M110.309,129.711l7.133,19.874l-20.271,7.275c-4.325,1.551-9.121-0.711-10.674-5.035l-4.313-12.018     L110.309,129.711z" fill="#F8D417"/><path d="M118.359,152.481l25.04,29.987c3.353,3.072,3.574,8.3,0.487,11.653     c-3.077,3.359-8.309,3.582-11.654,0.498l-36.483-34.159L118.359,152.481z" fill="#24262F"/><path d="M155.545,113.473l15.143,42.187c0,0-21.273-17.551-49.958-7.256l-7.133-19.874L155.545,113.473z" fill="#F8D417"/><path d="M189.326,102.695c2.688,7.481-4.348,16.836-15.786,21.601l11.17,31.122     c0.941,2.628-0.416,5.514-3.044,6.455c-2.599,0.935-5.51-0.417-6.456-3.045l-16.666-46.43l30.276-10.868     C189.015,101.91,189.186,102.301,189.326,102.695z" fill="#24262F"/></g></g><path d="M128,12.519C64.226,12.519,12.518,64.226,12.518,128c0,63.772,51.708,115.481,115.482,115.481   c5.971,0,11.837-0.455,17.564-1.337h0.017c51.602-7.887,91.974-49.931,97.309-102.322c0.395-3.891,0.592-7.826,0.592-11.822   C243.482,64.226,191.773,12.519,128,12.519z M229.29,138.439c-4.666,45.828-39.553,82.736-84.956,90.06l-0.85,0.122   c-5.077,0.791-10.288,1.186-15.484,1.186c-56.13,0-101.807-45.676-101.807-101.807C26.193,71.87,71.87,26.193,128,26.193   c56.131,0,101.806,45.677,101.806,101.807C229.806,131.51,229.624,135.021,229.29,138.439z" fill="#AA2746"/></g></svg>